<svg width="327" height="265" viewBox="0 0 327 265" fill="none" xmlns="http://www.w3.org/2000/svg">
<mask id="path-1-inside-1_116_63" fill="white">
<path d="M72.6409 251.829C51.4834 241.67 33.4732 225.071 20.7708 204.023C8.06847 182.975 1.21342 158.372 1.02805 133.166C0.842682 107.961 7.33487 83.2217 19.7258 61.9178C32.1167 40.6139 49.8801 23.6498 70.885 13.0604L121.239 131.94L72.6409 251.829Z"/>
</mask>
<path d="M72.6409 251.829C51.4834 241.67 33.4732 225.071 20.7708 204.023C8.06847 182.975 1.21342 158.372 1.02805 133.166C0.842682 107.961 7.33487 83.2217 19.7258 61.9178C32.1167 40.6139 49.8801 23.6498 70.885 13.0604L121.239 131.94L72.6409 251.829Z" fill="white" stroke="black" stroke-width="12" mask="url(#path-1-inside-1_116_63)"/>
<mask id="path-2-inside-2_116_63" fill="white">
<path d="M254.933 14.0327C276.281 24.5136 294.358 41.386 306.996 62.6259C319.634 83.8658 326.296 108.571 326.183 133.778C326.07 158.985 319.186 183.623 306.357 204.736C293.529 225.85 275.301 242.542 253.86 252.81L204.184 133.172L254.933 14.0327Z"/>
</mask>
<path d="M254.933 14.0327C276.281 24.5136 294.358 41.386 306.996 62.6259C319.634 83.8658 326.296 108.571 326.183 133.778C326.07 158.985 319.186 183.623 306.357 204.736C293.529 225.85 275.301 242.542 253.86 252.81L204.184 133.172L254.933 14.0327Z" fill="white" stroke="black" stroke-width="12" mask="url(#path-2-inside-2_116_63)"/>
<circle cx="161.5" cy="133.5" r="28.5" fill="white" stroke="black" stroke-width="6"/>
</svg>
