<svg width="120" height="85" viewBox="0 0 120 85" fill="none" xmlns="http://www.w3.org/2000/svg">
<path d="M20.28 8.84C21.496 5.896 23.224 4.84 25.464 5.672C26.104 4.264 26.648 3.368 27.096 2.984C27.608 2.6 28.12 2.312 28.632 2.12C29.144 1.864 29.688 1.608 30.264 1.352C30.84 1.09599 31.736 0.871996 32.952 0.679998C34.168 0.487997 35.512 0.391996 36.984 0.391996C38.456 0.327997 39.928 0.391996 41.4 0.583994C42.936 0.775995 44.216 1.192 45.24 1.832C47.736 3.304 48.28 5.672 46.872 8.936C47 8.872 46.968 8.936 46.776 9.128L45.912 10.76L45.24 11.624C44.92 11.944 43.928 13.896 42.264 17.48C40.92 20.04 39.544 22.568 38.136 25.064C35.832 29.352 34.424 32.104 33.912 33.32C36.152 32.104 38.744 30.344 41.688 28.04C47.256 23.752 50.808 21.192 52.344 20.36C53.88 19.528 54.936 19.016 55.512 18.824C56.152 18.632 56.76 18.6 57.336 18.728C57.912 18.792 58.52 18.952 59.16 19.208L61.56 20.168C63.096 20.68 63.928 22.536 64.056 25.736C64.12 28.872 63.48 31.24 62.136 32.84C56.312 40.392 49.752 45.448 42.456 48.008C40.216 48.84 37.912 49.544 35.544 50.12C38.936 50.504 42.168 52.744 45.24 56.84C47.736 60.168 49.528 63.592 50.616 67.112C51.768 70.632 52.664 73.256 53.304 74.984C53.944 76.648 54.2 77.928 54.072 78.824C54.008 79.784 53.464 80.488 52.44 80.936C51.48 81.448 49.816 81.928 47.448 82.376C46.36 82.568 44.12 81.288 40.728 78.536C39.256 77.32 37.688 76.008 36.024 74.6C34.36 73.128 32.696 71.752 31.032 70.472C27.192 67.464 24.504 65.896 22.968 65.768C22.84 65.768 22.584 65.704 22.2 65.576L20.472 69.896C19.576 72.008 18.648 74.248 17.688 76.616C16.792 78.92 15.704 81 14.424 82.856C12.44 84.2 10.136 84.744 7.512 84.488C4.504 84.168 2.52 82.952 1.56 80.84C0.92 78.856 1.976 73.032 4.728 63.368C6.584 56.584 8.184 50.632 9.528 45.512C10.872 40.392 12.024 36.168 12.984 32.84C13.944 29.448 14.648 26.824 15.096 24.968C15.544 23.048 15.992 21.192 16.44 19.4C17.528 15.24 18.808 11.72 20.28 8.84ZM75.8738 8.84C77.0898 5.896 78.8178 4.84 81.0578 5.672C81.6978 4.264 82.2418 3.368 82.6898 2.984C83.2018 2.6 83.7138 2.312 84.2258 2.12C84.7378 1.864 85.2818 1.608 85.8578 1.352C86.4338 1.09599 87.3298 0.871996 88.5458 0.679998C89.7618 0.487997 91.1058 0.391996 92.5778 0.391996C94.0498 0.327997 95.5218 0.391996 96.9938 0.583994C98.5298 0.775995 99.8098 1.192 100.834 1.832C103.33 3.304 103.874 5.672 102.466 8.936C102.594 8.872 102.562 8.936 102.37 9.128L101.506 10.76L100.834 11.624C100.514 11.944 99.5218 13.896 97.8578 17.48C96.5138 20.04 95.1378 22.568 93.7298 25.064C91.4258 29.352 90.0178 32.104 89.5058 33.32C91.7458 32.104 94.3378 30.344 97.2818 28.04C102.85 23.752 106.402 21.192 107.938 20.36C109.474 19.528 110.53 19.016 111.106 18.824C111.746 18.632 112.354 18.6 112.93 18.728C113.506 18.792 114.114 18.952 114.754 19.208L117.154 20.168C118.69 20.68 119.522 22.536 119.65 25.736C119.714 28.872 119.074 31.24 117.73 32.84C111.906 40.392 105.346 45.448 98.0498 48.008C95.8098 48.84 93.5058 49.544 91.1378 50.12C94.5298 50.504 97.7618 52.744 100.834 56.84C103.33 60.168 105.122 63.592 106.21 67.112C107.362 70.632 108.258 73.256 108.898 74.984C109.538 76.648 109.794 77.928 109.666 78.824C109.602 79.784 109.058 80.488 108.034 80.936C107.074 81.448 105.41 81.928 103.042 82.376C101.954 82.568 99.7138 81.288 96.3218 78.536C94.8498 77.32 93.2818 76.008 91.6178 74.6C89.9538 73.128 88.2898 71.752 86.6258 70.472C82.7858 67.464 80.0978 65.896 78.5618 65.768C78.4338 65.768 78.1778 65.704 77.7938 65.576L76.0658 69.896C75.1698 72.008 74.2418 74.248 73.2818 76.616C72.3858 78.92 71.2978 81 70.0178 82.856C68.0338 84.2 65.7298 84.744 63.1058 84.488C60.0978 84.168 58.1137 82.952 57.1537 80.84C56.5137 78.856 57.5698 73.032 60.3218 63.368C62.1778 56.584 63.7778 50.632 65.1218 45.512C66.4658 40.392 67.6178 36.168 68.5778 32.84C69.5378 29.448 70.2418 26.824 70.6898 24.968C71.1378 23.048 71.5858 21.192 72.0338 19.4C73.1218 15.24 74.4018 11.72 75.8738 8.84Z" fill="black"/>
</svg>
