<svg width="187" height="78" viewBox="0 0 187 78" fill="none" xmlns="http://www.w3.org/2000/svg">
<path d="M9.5 0C11.75 0.0833333 13.6667 0.916667 15.25 2.5C16.8333 4 17.6667 5.875 17.75 8.125V69.375C17.25 74.375 14.5 77.0833 9.5 77.5C7.16667 77.5 5.125 76.75 3.375 75.25C1.70833 73.6667 0.875 71.7083 0.875 69.375V8.125C0.958333 5.79167 1.83333 3.875 3.5 2.375C5.16667 0.791667 7.16667 0 9.5 0ZM30.875 22C36.4583 18.25 44 14.4583 53.5 10.625L74 1.875C74.9167 1.45833 75.9167 1.20833 77 1.125C79.3333 0.958333 81.3333 1.66667 83 3.25C84.6667 4.75 85.5 6.70833 85.5 9.125C85.5 11.875 84.9167 13.9167 83.75 15.25C82.6667 16.5 81.25 17.5417 79.5 18.375L62 25C58.5833 26.3333 55.3333 27.6667 52.25 29C49.25 30.25 46.5 31.7083 44 33.375C41.5 34.875 40.1667 36.5833 40 38.5C40.1667 40.3333 41.5 42.0417 44 43.625C46.5 45.2917 49.25 46.7917 52.25 48.125C55.3333 49.375 58.5833 50.6667 62 52L81.5 59.125C83.25 59.9583 84.6667 61.0417 85.75 62.375C86.9167 63.625 87.5 65.625 87.5 68.375C87.5 70.7917 86.6667 72.7917 85 74.375C83.3333 75.875 81.3333 76.5417 79 76.375C77.9167 76.2917 76.9167 76.0417 76 75.625L53.5 66.375C44 62.5417 36.4167 58.75 30.75 55C25.1667 51.1667 22.3333 45.6667 22.25 38.5C22.3333 31.3333 25.2083 25.8333 30.875 22ZM108.75 0C111 0.0833333 112.917 0.916667 114.5 2.5C116.083 4 116.917 5.875 117 8.125V69.375C116.5 74.375 113.75 77.0833 108.75 77.5C106.417 77.5 104.375 76.75 102.625 75.25C100.958 73.6667 100.125 71.7083 100.125 69.375V8.125C100.208 5.79167 101.083 3.875 102.75 2.375C104.417 0.791667 106.417 0 108.75 0ZM130.125 22C135.708 18.25 143.25 14.4583 152.75 10.625L173.25 1.875C174.167 1.45833 175.167 1.20833 176.25 1.125C178.583 0.958333 180.583 1.66667 182.25 3.25C183.917 4.75 184.75 6.70833 184.75 9.125C184.75 11.875 184.167 13.9167 183 15.25C181.917 16.5 180.5 17.5417 178.75 18.375L161.25 25C157.833 26.3333 154.583 27.6667 151.5 29C148.5 30.25 145.75 31.7083 143.25 33.375C140.75 34.875 139.417 36.5833 139.25 38.5C139.417 40.3333 140.75 42.0417 143.25 43.625C145.75 45.2917 148.5 46.7917 151.5 48.125C154.583 49.375 157.833 50.6667 161.25 52L180.75 59.125C182.5 59.9583 183.917 61.0417 185 62.375C186.167 63.625 186.75 65.625 186.75 68.375C186.75 70.7917 185.917 72.7917 184.25 74.375C182.583 75.875 180.583 76.5417 178.25 76.375C177.167 76.2917 176.167 76.0417 175.25 75.625L152.75 66.375C143.25 62.5417 135.667 58.75 130 55C124.417 51.1667 121.583 45.6667 121.5 38.5C121.583 31.3333 124.458 25.8333 130.125 22Z" fill="black"/>
</svg>
