<svg width="389" height="498" viewBox="0 0 389 498" fill="none" xmlns="http://www.w3.org/2000/svg">
<path d="M371.374 307.204C372.029 353.613 354.234 398.384 321.903 431.667C289.572 464.95 245.354 484.019 198.977 484.679C152.599 485.339 107.861 467.536 74.6044 435.187C41.3476 402.837 22.2963 358.591 21.6415 312.182L96.5946 311.115C96.9687 337.632 107.854 362.913 126.856 381.396C145.858 399.88 171.42 410.052 197.919 409.675C224.417 409.297 249.682 398.402 268.155 379.385C286.628 360.368 296.795 334.788 296.421 308.271L371.374 307.204Z" fill="black"/>
<path d="M7.09316 175.043C7.31403 152.078 12.3897 129.384 22.0304 108.258C31.6711 87.1323 45.6879 67.9872 63.2807 51.9163C80.8735 35.8454 101.698 23.1632 124.564 14.5941C147.431 6.0249 171.892 1.73647 196.551 1.97365C221.21 2.21082 245.584 6.96895 268.281 15.9764C290.979 24.9838 311.555 38.0641 328.836 54.4704C346.116 70.8768 359.762 90.2879 368.995 111.595C378.227 132.903 382.865 155.69 382.644 178.655L302.158 177.881C302.284 164.759 299.634 151.74 294.359 139.565C289.084 127.391 281.287 116.3 271.413 106.926C261.54 97.5514 249.783 90.0777 236.815 84.9312C223.846 79.7846 209.919 77.066 195.83 76.9305C181.74 76.7949 167.764 79.2452 154.699 84.1414C141.634 89.0375 129.735 96.2837 119.683 105.466C109.631 114.649 101.623 125.587 96.1142 137.658C90.6059 149.729 87.7058 162.695 87.5796 175.817L7.09316 175.043Z" fill="black"/>
<circle cx="51.0345" cy="241.035" r="46" transform="rotate(2.43125 51.0345 241.035)" fill="black" stroke="black" stroke-width="6"/>
<circle cx="337.035" cy="241.035" r="46" transform="rotate(2.43125 337.035 241.035)" fill="black" stroke="black" stroke-width="6"/>
</svg>
