<svg width="120" height="85" viewBox="0 0 120 85" fill="none" xmlns="http://www.w3.org/2000/svg">
<mask id="path-1-outside-1_123_11" maskUnits="userSpaceOnUse" x="-8" y="-9" width="137" height="103" fill="black">
<rect fill="white" x="-8" y="-9" width="137" height="103"/>
<path d="M20.28 8.84C21.496 5.896 23.224 4.84 25.464 5.672C26.104 4.264 26.648 3.368 27.096 2.984C27.608 2.6 28.12 2.312 28.632 2.12C29.144 1.864 29.688 1.608 30.264 1.352C30.84 1.09599 31.736 0.871996 32.952 0.679998C34.168 0.487997 35.512 0.391996 36.984 0.391996C38.456 0.327997 39.928 0.391996 41.4 0.583994C42.936 0.775995 44.216 1.192 45.24 1.832C47.736 3.304 48.28 5.672 46.872 8.936C47 8.872 46.968 8.936 46.776 9.128L45.912 10.76L45.24 11.624C44.92 11.944 43.928 13.896 42.264 17.48C40.92 20.04 39.544 22.568 38.136 25.064C35.832 29.352 34.424 32.104 33.912 33.32C36.152 32.104 38.744 30.344 41.688 28.04C47.256 23.752 50.808 21.192 52.344 20.36C53.88 19.528 54.936 19.016 55.512 18.824C56.152 18.632 56.76 18.6 57.336 18.728C57.912 18.792 58.52 18.952 59.16 19.208L61.56 20.168C63.096 20.68 63.928 22.536 64.056 25.736C64.12 28.872 63.48 31.24 62.136 32.84C56.312 40.392 49.752 45.448 42.456 48.008C40.216 48.84 37.912 49.544 35.544 50.12C38.936 50.504 42.168 52.744 45.24 56.84C47.736 60.168 49.528 63.592 50.616 67.112C51.768 70.632 52.664 73.256 53.304 74.984C53.944 76.648 54.2 77.928 54.072 78.824C54.008 79.784 53.464 80.488 52.44 80.936C51.48 81.448 49.816 81.928 47.448 82.376C46.36 82.568 44.12 81.288 40.728 78.536C39.256 77.32 37.688 76.008 36.024 74.6C34.36 73.128 32.696 71.752 31.032 70.472C27.192 67.464 24.504 65.896 22.968 65.768C22.84 65.768 22.584 65.704 22.2 65.576L20.472 69.896C19.576 72.008 18.648 74.248 17.688 76.616C16.792 78.92 15.704 81 14.424 82.856C12.44 84.2 10.136 84.744 7.512 84.488C4.504 84.168 2.52 82.952 1.56 80.84C0.92 78.856 1.976 73.032 4.728 63.368C6.584 56.584 8.184 50.632 9.528 45.512C10.872 40.392 12.024 36.168 12.984 32.84C13.944 29.448 14.648 26.824 15.096 24.968C15.544 23.048 15.992 21.192 16.44 19.4C17.528 15.24 18.808 11.72 20.28 8.84ZM75.8738 8.84C77.0898 5.896 78.8178 4.84 81.0578 5.672C81.6978 4.264 82.2418 3.368 82.6898 2.984C83.2018 2.6 83.7138 2.312 84.2258 2.12C84.7378 1.864 85.2818 1.608 85.8578 1.352C86.4338 1.09599 87.3298 0.871996 88.5458 0.679998C89.7618 0.487997 91.1058 0.391996 92.5778 0.391996C94.0498 0.327997 95.5218 0.391996 96.9938 0.583994C98.5298 0.775995 99.8098 1.192 100.834 1.832C103.33 3.304 103.874 5.672 102.466 8.936C102.594 8.872 102.562 8.936 102.37 9.128L101.506 10.76L100.834 11.624C100.514 11.944 99.5218 13.896 97.8578 17.48C96.5138 20.04 95.1378 22.568 93.7298 25.064C91.4258 29.352 90.0178 32.104 89.5058 33.32C91.7458 32.104 94.3378 30.344 97.2818 28.04C102.85 23.752 106.402 21.192 107.938 20.36C109.474 19.528 110.53 19.016 111.106 18.824C111.746 18.632 112.354 18.6 112.93 18.728C113.506 18.792 114.114 18.952 114.754 19.208L117.154 20.168C118.69 20.68 119.522 22.536 119.65 25.736C119.714 28.872 119.074 31.24 117.73 32.84C111.906 40.392 105.346 45.448 98.0498 48.008C95.8098 48.84 93.5058 49.544 91.1378 50.12C94.5298 50.504 97.7618 52.744 100.834 56.84C103.33 60.168 105.122 63.592 106.21 67.112C107.362 70.632 108.258 73.256 108.898 74.984C109.538 76.648 109.794 77.928 109.666 78.824C109.602 79.784 109.058 80.488 108.034 80.936C107.074 81.448 105.41 81.928 103.042 82.376C101.954 82.568 99.7138 81.288 96.3218 78.536C94.8498 77.32 93.2818 76.008 91.6178 74.6C89.9538 73.128 88.2898 71.752 86.6258 70.472C82.7858 67.464 80.0978 65.896 78.5618 65.768C78.4338 65.768 78.1778 65.704 77.7938 65.576L76.0658 69.896C75.1698 72.008 74.2418 74.248 73.2818 76.616C72.3858 78.92 71.2978 81 70.0178 82.856C68.0338 84.2 65.7298 84.744 63.1058 84.488C60.0978 84.168 58.1137 82.952 57.1537 80.84C56.5137 78.856 57.5698 73.032 60.3218 63.368C62.1778 56.584 63.7778 50.632 65.1218 45.512C66.4658 40.392 67.6178 36.168 68.5778 32.84C69.5378 29.448 70.2418 26.824 70.6898 24.968C71.1378 23.048 71.5858 21.192 72.0338 19.4C73.1218 15.24 74.4018 11.72 75.8738 8.84Z"/>
</mask>
<path d="M20.28 8.84C21.496 5.896 23.224 4.84 25.464 5.672C26.104 4.264 26.648 3.368 27.096 2.984C27.608 2.6 28.12 2.312 28.632 2.12C29.144 1.864 29.688 1.608 30.264 1.352C30.84 1.09599 31.736 0.871996 32.952 0.679998C34.168 0.487997 35.512 0.391996 36.984 0.391996C38.456 0.327997 39.928 0.391996 41.4 0.583994C42.936 0.775995 44.216 1.192 45.24 1.832C47.736 3.304 48.28 5.672 46.872 8.936C47 8.872 46.968 8.936 46.776 9.128L45.912 10.76L45.24 11.624C44.92 11.944 43.928 13.896 42.264 17.48C40.92 20.04 39.544 22.568 38.136 25.064C35.832 29.352 34.424 32.104 33.912 33.32C36.152 32.104 38.744 30.344 41.688 28.04C47.256 23.752 50.808 21.192 52.344 20.36C53.88 19.528 54.936 19.016 55.512 18.824C56.152 18.632 56.76 18.6 57.336 18.728C57.912 18.792 58.52 18.952 59.16 19.208L61.56 20.168C63.096 20.68 63.928 22.536 64.056 25.736C64.12 28.872 63.48 31.24 62.136 32.84C56.312 40.392 49.752 45.448 42.456 48.008C40.216 48.84 37.912 49.544 35.544 50.12C38.936 50.504 42.168 52.744 45.24 56.84C47.736 60.168 49.528 63.592 50.616 67.112C51.768 70.632 52.664 73.256 53.304 74.984C53.944 76.648 54.2 77.928 54.072 78.824C54.008 79.784 53.464 80.488 52.44 80.936C51.48 81.448 49.816 81.928 47.448 82.376C46.36 82.568 44.12 81.288 40.728 78.536C39.256 77.32 37.688 76.008 36.024 74.6C34.36 73.128 32.696 71.752 31.032 70.472C27.192 67.464 24.504 65.896 22.968 65.768C22.84 65.768 22.584 65.704 22.2 65.576L20.472 69.896C19.576 72.008 18.648 74.248 17.688 76.616C16.792 78.92 15.704 81 14.424 82.856C12.44 84.2 10.136 84.744 7.512 84.488C4.504 84.168 2.52 82.952 1.56 80.84C0.92 78.856 1.976 73.032 4.728 63.368C6.584 56.584 8.184 50.632 9.528 45.512C10.872 40.392 12.024 36.168 12.984 32.84C13.944 29.448 14.648 26.824 15.096 24.968C15.544 23.048 15.992 21.192 16.44 19.4C17.528 15.24 18.808 11.72 20.28 8.84ZM75.8738 8.84C77.0898 5.896 78.8178 4.84 81.0578 5.672C81.6978 4.264 82.2418 3.368 82.6898 2.984C83.2018 2.6 83.7138 2.312 84.2258 2.12C84.7378 1.864 85.2818 1.608 85.8578 1.352C86.4338 1.09599 87.3298 0.871996 88.5458 0.679998C89.7618 0.487997 91.1058 0.391996 92.5778 0.391996C94.0498 0.327997 95.5218 0.391996 96.9938 0.583994C98.5298 0.775995 99.8098 1.192 100.834 1.832C103.33 3.304 103.874 5.672 102.466 8.936C102.594 8.872 102.562 8.936 102.37 9.128L101.506 10.76L100.834 11.624C100.514 11.944 99.5218 13.896 97.8578 17.48C96.5138 20.04 95.1378 22.568 93.7298 25.064C91.4258 29.352 90.0178 32.104 89.5058 33.32C91.7458 32.104 94.3378 30.344 97.2818 28.04C102.85 23.752 106.402 21.192 107.938 20.36C109.474 19.528 110.53 19.016 111.106 18.824C111.746 18.632 112.354 18.6 112.93 18.728C113.506 18.792 114.114 18.952 114.754 19.208L117.154 20.168C118.69 20.68 119.522 22.536 119.65 25.736C119.714 28.872 119.074 31.24 117.73 32.84C111.906 40.392 105.346 45.448 98.0498 48.008C95.8098 48.84 93.5058 49.544 91.1378 50.12C94.5298 50.504 97.7618 52.744 100.834 56.84C103.33 60.168 105.122 63.592 106.21 67.112C107.362 70.632 108.258 73.256 108.898 74.984C109.538 76.648 109.794 77.928 109.666 78.824C109.602 79.784 109.058 80.488 108.034 80.936C107.074 81.448 105.41 81.928 103.042 82.376C101.954 82.568 99.7138 81.288 96.3218 78.536C94.8498 77.32 93.2818 76.008 91.6178 74.6C89.9538 73.128 88.2898 71.752 86.6258 70.472C82.7858 67.464 80.0978 65.896 78.5618 65.768C78.4338 65.768 78.1778 65.704 77.7938 65.576L76.0658 69.896C75.1698 72.008 74.2418 74.248 73.2818 76.616C72.3858 78.92 71.2978 81 70.0178 82.856C68.0338 84.2 65.7298 84.744 63.1058 84.488C60.0978 84.168 58.1137 82.952 57.1537 80.84C56.5137 78.856 57.5698 73.032 60.3218 63.368C62.1778 56.584 63.7778 50.632 65.1218 45.512C66.4658 40.392 67.6178 36.168 68.5778 32.84C69.5378 29.448 70.2418 26.824 70.6898 24.968C71.1378 23.048 71.5858 21.192 72.0338 19.4C73.1218 15.24 74.4018 11.72 75.8738 8.84Z" fill="white"/>
<path d="M20.28 8.84L28.2939 12.936L28.4595 12.6121L28.5984 12.2758L20.28 8.84ZM25.464 5.672L22.3303 14.1088L30.1885 17.0276L33.6573 9.39622L25.464 5.672ZM27.096 2.984L21.696 -4.21601L21.4615 -4.04011L21.2389 -3.84932L27.096 2.984ZM28.632 2.12L31.7921 10.547L32.2344 10.3811L32.6569 10.1698L28.632 2.12ZM32.952 0.679998L34.3556 9.56987L34.3557 9.56986L32.952 0.679998ZM36.984 0.391996V9.392H37.1796L37.3749 9.3835L36.984 0.391996ZM41.4 0.583994L40.236 9.5084L40.2598 9.51151L40.2837 9.51449L41.4 0.583994ZM45.24 1.832L40.47 9.46398L40.5683 9.52541L40.6681 9.58429L45.24 1.832ZM46.872 8.936L38.6081 5.37117L28.8407 28.0138L50.8969 16.9859L46.872 8.936ZM46.776 9.128L40.412 2.76407L39.4551 3.72099L38.8219 4.917L46.776 9.128ZM45.912 10.76L53.0162 16.2855L53.4985 15.6653L53.8661 14.971L45.912 10.76ZM45.24 11.624L51.604 17.988L52.0002 17.5917L52.3442 17.1495L45.24 11.624ZM42.264 17.48L50.2326 21.6635L50.3346 21.4691L50.4271 21.27L42.264 17.48ZM38.136 25.064L30.2972 20.6421L30.2517 20.7227L30.208 20.8042L38.136 25.064ZM33.912 33.32L25.6173 29.8275L15.664 53.4667L38.2058 41.2297L33.912 33.32ZM41.688 28.04L36.1966 20.9094L36.1689 20.9308L36.1412 20.9525L41.688 28.04ZM52.344 20.36L48.0575 12.4464L48.0574 12.4464L52.344 20.36ZM55.512 18.824L52.9259 10.2036L52.7953 10.2427L52.666 10.2858L55.512 18.824ZM57.336 18.728L55.3837 27.5137L55.8586 27.6192L56.3421 27.6729L57.336 18.728ZM59.16 19.208L62.5025 10.8517L62.5025 10.8517L59.16 19.208ZM61.56 20.168L58.2175 28.5243L58.463 28.6225L58.714 28.7062L61.56 20.168ZM64.056 25.736L73.0541 25.5524L73.0523 25.4643L73.0488 25.3763L64.056 25.736ZM62.136 32.84L55.2447 27.0513L55.1238 27.1951L55.0091 27.3438L62.136 32.84ZM42.456 48.008L39.4762 39.5156L39.399 39.5427L39.3223 39.5712L42.456 48.008ZM35.544 50.12L33.4168 41.375L34.5316 59.0629L35.544 50.12ZM45.24 56.84L38.04 62.24L38.04 62.24L45.24 56.84ZM50.616 67.112L42.0174 69.7698L42.0393 69.8407L42.0624 69.9113L50.616 67.112ZM53.304 74.984L44.8643 78.1098L44.8838 78.1624L44.9039 78.2148L53.304 74.984ZM54.072 78.824L45.1625 77.5512L45.1145 77.8869L45.0919 78.2253L54.072 78.824ZM52.44 80.936L48.8326 72.6906L48.5128 72.8305L48.2047 72.9948L52.44 80.936ZM47.448 82.376L49.0121 91.2391L49.0666 91.2294L49.121 91.2191L47.448 82.376ZM40.728 78.536L34.9961 85.4747L35.0267 85.5L35.0576 85.5251L40.728 78.536ZM36.024 74.6L30.0608 81.341L30.135 81.4065L30.2105 81.4705L36.024 74.6ZM31.032 70.472L25.482 77.5571L25.5132 77.5815L25.5446 77.6056L31.032 70.472ZM22.968 65.768L23.7154 56.7991L23.3424 56.768H22.968V65.768ZM22.2 65.576L25.046 57.0378L16.9954 54.3543L13.8437 62.2335L22.2 65.576ZM20.472 69.896L28.7572 73.4109L28.7937 73.3251L28.8283 73.2385L20.472 69.896ZM17.688 76.616L9.34735 73.2347L9.32323 73.2941L9.29996 73.354L17.688 76.616ZM14.424 82.856L19.4716 90.3073L20.8724 89.3584L21.8329 87.9656L14.424 82.856ZM7.512 84.488L6.55993 93.4375L6.599 93.4417L6.6381 93.4455L7.512 84.488ZM1.56 80.84L-7.00538 83.603L-6.8469 84.0943L-6.6333 84.5642L1.56 80.84ZM4.728 63.368L13.3839 65.8329L13.3967 65.788L13.409 65.743L4.728 63.368ZM9.528 45.512L18.2331 47.7971L18.2331 47.7971L9.528 45.512ZM12.984 32.84L21.6314 35.3344L21.6377 35.3127L21.6439 35.2909L12.984 32.84ZM15.096 24.968L23.8447 27.0798L23.8528 27.0464L23.8606 27.0131L15.096 24.968ZM16.44 19.4L7.73287 17.1227L7.72054 17.1699L7.70872 17.2172L16.44 19.4ZM28.5984 12.2758C28.866 11.6279 28.638 12.6292 27.1811 13.5195C26.372 14.0139 25.4021 14.3304 24.3873 14.3877C23.4205 14.4423 22.7023 14.247 22.3303 14.1088L28.5977 -2.76483C25.4122 -3.94801 21.4509 -4.07373 17.795 -1.83954C14.61 0.10682 12.91 3.10807 11.9616 5.40415L28.5984 12.2758ZM33.6573 9.39622C33.7687 9.15124 33.86 8.96365 33.9309 8.82562C33.9659 8.75756 33.9935 8.70612 34.0138 8.66956C34.0238 8.6515 34.0316 8.63795 34.037 8.6286C34.0424 8.61924 34.0451 8.61476 34.0451 8.6148C34.0451 8.61481 34.0418 8.62017 34.0353 8.63038C34.0288 8.64056 34.0184 8.65661 34.0039 8.67792C33.9762 8.71889 33.9271 8.78912 33.8557 8.88115C33.7852 8.97213 33.6807 9.10035 33.5407 9.25223C33.4021 9.40256 33.2071 9.59961 32.9531 9.81731L21.2389 -3.84932C19.9385 -2.73474 19.1042 -1.46029 18.6589 -0.726808C18.137 0.132815 17.6761 1.05587 17.2707 1.94777L33.6573 9.39622ZM32.496 10.184C32.4369 10.2283 32.204 10.3925 31.7921 10.547L25.4719 -6.30696C24.036 -5.76851 22.7791 -5.02832 21.696 -4.21601L32.496 10.184ZM32.6569 10.1698C33.0356 9.98051 33.4555 9.78241 33.9193 9.5763L26.6087 -6.87231C25.9205 -6.56642 25.2524 -6.25252 24.6071 -5.92984L32.6569 10.1698ZM33.9193 9.5763C33.7258 9.66228 33.5927 9.70741 33.5462 9.72256C33.4961 9.7389 33.4936 9.73757 33.5508 9.72328C33.6733 9.69267 33.9294 9.63717 34.3556 9.56987L31.5484 -8.20987C30.1449 -7.98828 28.2965 -7.62243 26.6087 -6.87231L33.9193 9.5763ZM34.3557 9.56986C35.0279 9.46372 35.8941 9.392 36.984 9.392V-8.608C35.1299 -8.608 33.3081 -8.48772 31.5483 -8.20987L34.3557 9.56986ZM37.3749 9.3835C38.3237 9.34225 39.2755 9.38312 40.236 9.5084L42.564 -8.34041C40.5805 -8.59913 38.5883 -8.68626 36.5931 -8.59951L37.3749 9.3835ZM40.2837 9.51449C40.5683 9.55007 40.7059 9.5914 40.7302 9.5993C40.7507 9.60596 40.6468 9.57449 40.47 9.46398L50.01 -5.79999C47.6106 -7.29963 44.9974 -8.03637 42.5163 -8.34651L40.2837 9.51449ZM40.6681 9.58429C40.509 9.49043 40.1109 9.22247 39.6896 8.69032C39.2465 8.13063 38.9143 7.4487 38.7485 6.72707C38.4342 5.35911 38.8898 4.71821 38.6081 5.37117L55.1359 12.5008C56.2622 9.88978 57.1498 6.43288 56.2915 2.69692C55.3608 -1.35428 52.7445 -4.19081 49.8119 -5.9203L40.6681 9.58429ZM50.8969 16.9859C50.7472 17.0607 50.4226 17.2182 49.9881 17.3762C49.7667 17.4567 48.5602 17.912 46.9378 17.912C46.0842 17.912 44.3439 17.7929 42.4797 16.7276C40.2972 15.4804 38.7964 13.4176 38.2172 11.1008C37.7246 9.13038 38.0241 7.51382 38.2168 6.74279C38.4286 5.89565 38.7204 5.25864 38.8941 4.91117C39.2389 4.2216 39.5952 3.73846 39.7245 3.56606C39.8939 3.34014 40.0378 3.17173 40.1168 3.0815C40.2738 2.90201 40.3912 2.7849 40.412 2.76407L53.14 15.4919C53.2568 15.3751 53.4502 15.178 53.6632 14.9345C53.6951 14.8981 54.418 14.1126 54.9939 12.9608C55.1716 12.6053 55.4662 11.9613 55.6794 11.1082C55.8737 10.3312 56.1734 8.70961 55.6798 6.73514C55.0996 4.4144 53.5966 2.34861 51.4105 1.0994C49.5428 0.0320938 47.7978 -0.0879872 46.9382 -0.0880042C45.3038 -0.0880367 44.0803 0.37133 43.8369 0.459824C43.3804 0.625829 43.0288 0.795291 42.8471 0.886126L50.8969 16.9859ZM38.8219 4.917L37.9579 6.549L53.8661 14.971L54.7301 13.339L38.8219 4.917ZM38.8078 5.23453L38.1358 6.09853L52.3442 17.1495L53.0162 16.2855L38.8078 5.23453ZM38.876 5.26003C37.8258 6.31027 37.156 7.53795 37.0802 7.66933C36.8007 8.15332 36.5123 8.70024 36.2326 9.25055C35.6646 10.3682 34.9483 11.8648 34.1009 13.69L50.4271 21.27C51.2437 19.5112 51.8554 18.2398 52.2794 17.4054C52.4957 16.9798 52.6193 16.7547 52.6678 16.6707C52.6935 16.6263 52.655 16.6964 52.5643 16.8317C52.5172 16.902 52.4274 17.0328 52.2997 17.1984C52.1863 17.3454 51.95 17.642 51.604 17.988L38.876 5.26003ZM34.2954 13.2965C32.9931 15.7771 31.6603 18.2256 30.2972 20.6421L45.9748 29.4859C47.4277 26.9104 48.8469 24.3029 50.2326 21.6635L34.2954 13.2965ZM30.208 20.8042C27.9681 24.9728 26.3295 28.1359 25.6173 29.8275L42.2067 36.8125C42.5185 36.0721 43.6959 33.7312 46.064 29.3238L30.208 20.8042ZM38.2058 41.2297C41.0371 39.6927 44.0608 37.6115 47.2348 35.1275L36.1412 20.9525C33.4272 23.0765 31.2669 24.5153 29.6182 25.4103L38.2058 41.2297ZM47.1794 35.1706C49.927 33.0545 52.1232 31.4067 53.7902 30.2053C54.6238 29.6046 55.2909 29.1401 55.8063 28.7964C56.0624 28.6257 56.2629 28.4969 56.4138 28.4035C56.5707 28.3063 56.637 28.2701 56.6306 28.2736L48.0574 12.4464C45.7433 13.6999 41.5475 16.7887 36.1966 20.9094L47.1794 35.1706ZM56.6305 28.2736C57.3311 27.8942 57.8509 27.6266 58.2145 27.4503C58.3944 27.3631 58.5039 27.3139 58.5548 27.2919C58.6204 27.2636 58.5405 27.3013 58.358 27.3622L52.666 10.2858C51.2256 10.766 49.4974 11.6664 48.0575 12.4464L56.6305 28.2736ZM58.0982 27.4444C57.4626 27.6351 56.4996 27.7617 55.3837 27.5137L59.2884 9.94231C57.0204 9.43832 54.8414 9.62889 52.9259 10.2036L58.0982 27.4444ZM56.3421 27.6729C55.9771 27.6324 55.7926 27.5543 55.8175 27.5643L62.5025 10.8517C61.2474 10.3497 59.8469 9.95161 58.3299 9.78305L56.3421 27.6729ZM55.8175 27.5643L58.2175 28.5243L64.9025 11.8117L62.5025 10.8517L55.8175 27.5643ZM58.714 28.7062C57.7264 28.377 56.8731 27.8251 56.216 27.168C55.5913 26.5433 55.27 25.9524 55.1234 25.6255C54.8787 25.0796 55.0217 25.0583 55.0632 26.0957L73.0488 25.3763C72.9623 23.2137 72.6253 20.6644 71.5486 18.2625C70.3844 15.6655 68.1479 12.8771 64.406 11.6298L58.714 28.7062ZM55.0579 25.9196C55.077 26.8584 54.9808 27.3491 54.9357 27.5158C54.8984 27.6539 54.9405 27.4133 55.2447 27.0513L69.0274 38.6287C72.3312 34.6955 73.141 29.8099 73.0541 25.5524L55.0579 25.9196ZM55.0091 27.3438C49.9995 33.8399 44.7825 37.6538 39.4762 39.5156L45.4358 56.5004C54.7215 53.2422 62.6246 46.9441 69.2629 38.3361L55.0091 27.3438ZM39.3223 39.5712C37.418 40.2785 35.4504 40.8803 33.4168 41.375L37.6712 58.865C40.3736 58.2077 43.014 57.4015 45.5897 56.4448L39.3223 39.5712ZM34.5316 59.0629C34.5386 59.0637 34.8047 59.0827 35.3853 59.4851C36.0091 59.9174 36.9183 60.7444 38.04 62.24L52.44 51.44C48.6223 46.3498 43.4154 41.9536 36.5564 41.1771L34.5316 59.0629ZM38.04 62.24C39.995 64.8467 41.2714 67.3561 42.0174 69.7698L59.2146 64.4542C57.7847 59.8279 55.477 55.4893 52.44 51.44L38.04 62.24ZM42.0624 69.9113C43.2222 73.455 44.1619 76.2134 44.8643 78.1098L61.7437 71.8582C61.1661 70.2986 60.3138 67.809 59.1696 64.3127L42.0624 69.9113ZM44.9039 78.2148C44.9984 78.4606 45.0615 78.6475 45.1019 78.7804C45.1429 78.9152 45.1536 78.971 45.1508 78.957C45.1486 78.946 45.1242 78.8235 45.1115 78.6085C45.0991 78.3965 45.0941 78.0298 45.1625 77.5512L62.9815 80.0968C63.451 76.8109 62.4571 73.711 61.7041 71.7532L44.9039 78.2148ZM45.0919 78.2253C45.1687 77.0743 45.5842 75.747 46.4944 74.569C47.3526 73.4583 48.3098 72.9193 48.8326 72.6906L56.0474 89.1814C57.5942 88.5047 59.3354 87.3897 60.7376 85.575C62.1918 83.693 62.9113 81.5337 63.0521 79.4227L45.0919 78.2253ZM48.2047 72.9948C48.5047 72.8348 48.5156 72.8774 47.9776 73.0326C47.4976 73.171 46.7805 73.3426 45.775 73.5329L49.121 91.2191C51.5671 90.7564 54.4113 90.0846 56.6753 88.8772L48.2047 72.9948ZM45.8839 73.5129C46.8358 73.345 47.6191 73.3866 48.1279 73.4517C48.6415 73.5174 49.0149 73.6249 49.2126 73.6895C49.5788 73.8093 49.6715 73.8911 49.4173 73.7458C49.1957 73.6192 48.8281 73.3876 48.295 73.006C47.7701 72.6302 47.1403 72.1489 46.3984 71.5469L35.0576 85.5251C36.9113 87.029 38.7526 88.3832 40.4868 89.3742C41.3525 89.8689 42.4212 90.4067 43.6194 90.7985C44.7016 91.1523 46.6723 91.652 49.0121 91.2391L45.8839 73.5129ZM46.4599 71.5973C45.0187 70.4068 43.4781 69.1178 41.8375 67.7295L30.2105 81.4705C31.8979 82.8982 33.4933 84.2332 34.9961 85.4747L46.4599 71.5973ZM41.9872 67.859C40.178 66.2586 38.3555 64.7508 36.5194 63.3384L25.5446 77.6056C27.0365 78.7532 28.542 79.9974 30.0608 81.341L41.9872 67.859ZM36.582 63.3869C34.4984 61.7548 32.508 60.3377 30.6708 59.266C29.1145 58.3581 26.5952 57.0391 23.7154 56.7991L22.2206 74.7369C21.7762 74.6999 21.4504 74.6255 21.2719 74.5777C21.0888 74.5287 20.9883 74.4882 20.9826 74.4859C20.9739 74.4824 21.023 74.5019 21.1357 74.5586C21.2467 74.6145 21.4009 74.6972 21.6012 74.814C22.452 75.3103 23.7256 76.1812 25.482 77.5571L36.582 63.3869ZM22.968 56.768C23.6163 56.768 24.1106 56.8423 24.3276 56.8785C24.5819 56.9208 24.77 56.9655 24.8628 56.9887C25.0426 57.0337 25.1214 57.063 25.046 57.0378L19.354 74.1142C19.6626 74.217 20.0614 74.3423 20.4972 74.4513C20.7522 74.515 21.7419 74.768 22.968 74.768V56.768ZM13.8437 62.2335L12.1157 66.5535L28.8283 73.2385L30.5563 68.9185L13.8437 62.2335ZM12.1868 66.3811C11.27 68.5421 10.3235 70.8269 9.34735 73.2347L26.0287 79.9973C26.9725 77.6691 27.882 75.4739 28.7572 73.4109L12.1868 66.3811ZM9.29996 73.354C8.63333 75.0682 7.86197 76.5184 7.01509 77.7464L21.8329 87.9656C23.546 85.4816 24.9507 82.7718 26.076 79.878L9.29996 73.354ZM9.37637 75.4047C9.30765 75.4513 9.14457 75.6045 8.3859 75.5305L6.6381 93.4455C11.1274 93.8835 15.5724 92.9487 19.4716 90.3073L9.37637 75.4047ZM8.46407 75.5385C7.90638 75.4792 8.03464 75.3951 8.47106 75.6626C8.69911 75.8024 8.96264 76.0099 9.21297 76.2928C9.46346 76.576 9.63961 76.8657 9.7533 77.1158L-6.6333 84.5642C-3.95325 90.4603 1.48422 92.8975 6.55993 93.4375L8.46407 75.5385ZM10.1254 78.077C10.4811 79.1796 10.3497 79.7777 10.3853 79.1108C10.4097 78.652 10.5006 77.8416 10.7276 76.5897C11.1794 74.0978 12.0413 70.5475 13.3839 65.8329L-3.92788 60.9031C-5.33731 65.8525 -6.37943 70.0462 -6.98361 73.3783C-7.28462 75.0384 -7.5097 76.66 -7.58925 78.1532C-7.65773 79.4383 -7.68106 81.5084 -7.00538 83.603L10.1254 78.077ZM13.409 65.743C15.2707 58.9381 16.8791 52.955 18.2331 47.7971L0.822922 43.2269C-0.511134 48.309 -2.10269 54.2299 -3.95298 60.993L13.409 65.743ZM18.2331 47.7971C19.5672 42.7148 20.699 38.5669 21.6314 35.3344L4.33659 30.3456C3.34902 33.7691 2.17682 38.0692 0.822922 43.2269L18.2331 47.7971ZM21.6439 35.2909C22.6139 31.8633 23.3554 29.1069 23.8447 27.0798L6.34726 22.8562C5.94057 24.5411 5.27407 27.0327 4.32415 30.3891L21.6439 35.2909ZM23.8606 27.0131C24.2985 25.136 24.7355 23.3261 25.1713 21.5828L7.70872 17.2172C7.24853 19.0579 6.78945 20.96 6.33143 22.9229L23.8606 27.0131ZM25.1471 21.6772C26.1208 17.9545 27.1966 15.083 28.2939 12.936L12.2661 4.744C10.4194 8.35704 8.93522 12.5255 7.73287 17.1227L25.1471 21.6772ZM75.8738 8.84L83.8877 12.936L84.0532 12.6121L84.1921 12.2758L75.8738 8.84ZM81.0578 5.672L77.9241 14.1088L85.7823 17.0276L89.251 9.39622L81.0578 5.672ZM82.6898 2.984L77.2898 -4.21601L77.0552 -4.04011L76.8326 -3.84932L82.6898 2.984ZM84.2258 2.12L87.3859 10.547L87.8282 10.3811L88.2507 10.1698L84.2258 2.12ZM88.5458 0.679998L89.9494 9.56987L89.9494 9.56986L88.5458 0.679998ZM92.5778 0.391996V9.392H92.7733L92.9687 9.3835L92.5778 0.391996ZM96.9938 0.583994L95.8297 9.5084L95.8536 9.51151L95.8774 9.51449L96.9938 0.583994ZM100.834 1.832L96.0638 9.46398L96.1621 9.52541L96.2619 9.58429L100.834 1.832ZM102.466 8.936L94.2019 5.37117L84.4344 28.0138L106.491 16.9859L102.466 8.936ZM102.37 9.128L96.0058 2.76407L95.0489 3.72099L94.4157 4.917L102.37 9.128ZM101.506 10.76L108.61 16.2855L109.092 15.6653L109.46 14.971L101.506 10.76ZM100.834 11.624L107.198 17.988L107.594 17.5917L107.938 17.1495L100.834 11.624ZM97.8578 17.48L105.826 21.6635L105.928 21.4691L106.021 21.27L97.8578 17.48ZM93.7298 25.064L85.8909 20.6421L85.8455 20.7227L85.8017 20.8042L93.7298 25.064ZM89.5058 33.32L81.211 29.8275L71.2577 53.4667L93.7996 41.2297L89.5058 33.32ZM97.2818 28.04L91.7904 20.9094L91.7626 20.9308L91.735 20.9525L97.2818 28.04ZM107.938 20.36L103.651 12.4464L103.651 12.4464L107.938 20.36ZM111.106 18.824L108.52 10.2036L108.389 10.2427L108.26 10.2858L111.106 18.824ZM112.93 18.728L110.977 27.5137L111.452 27.6192L111.936 27.6729L112.93 18.728ZM114.754 19.208L118.096 10.8517L118.096 10.8517L114.754 19.208ZM117.154 20.168L113.811 28.5243L114.057 28.6225L114.308 28.7062L117.154 20.168ZM119.65 25.736L128.648 25.5524L128.646 25.4643L128.643 25.3763L119.65 25.736ZM117.73 32.84L110.838 27.0513L110.718 27.1951L110.603 27.3438L117.73 32.84ZM98.0498 48.008L95.07 39.5156L94.9928 39.5427L94.9161 39.5712L98.0498 48.008ZM91.1378 50.12L89.0106 41.375L90.1254 59.0629L91.1378 50.12ZM100.834 56.84L93.6338 62.24L93.6338 62.24L100.834 56.84ZM106.21 67.112L97.6111 69.7698L97.6331 69.8407L97.6562 69.9113L106.21 67.112ZM108.898 74.984L100.458 78.1098L100.478 78.1624L100.498 78.2148L108.898 74.984ZM109.666 78.824L100.756 77.5512L100.708 77.8869L100.686 78.2253L109.666 78.824ZM108.034 80.936L104.426 72.6906L104.107 72.8305L103.798 72.9948L108.034 80.936ZM103.042 82.376L104.606 91.2391L104.66 91.2294L104.715 91.2191L103.042 82.376ZM96.3218 78.536L90.5898 85.4747L90.6205 85.5L90.6514 85.5251L96.3218 78.536ZM91.6178 74.6L85.6546 81.341L85.7287 81.4065L85.8043 81.4705L91.6178 74.6ZM86.6258 70.472L81.0758 77.5571L81.107 77.5815L81.1384 77.6056L86.6258 70.472ZM78.5618 65.768L79.3092 56.7991L78.9361 56.768H78.5618V65.768ZM77.7938 65.576L80.6398 57.0378L72.5891 54.3543L69.4375 62.2335L77.7938 65.576ZM76.0658 69.896L84.351 73.4109L84.3874 73.3251L84.422 73.2385L76.0658 69.896ZM73.2818 76.616L64.9411 73.2347L64.917 73.2941L64.8937 73.354L73.2818 76.616ZM70.0178 82.856L75.0654 90.3073L76.4661 89.3584L77.4267 87.9656L70.0178 82.856ZM63.1058 84.488L62.1537 93.4375L62.1927 93.4417L62.2319 93.4455L63.1058 84.488ZM57.1537 80.84L48.5884 83.603L48.7468 84.0943L48.9605 84.5642L57.1537 80.84ZM60.3218 63.368L68.9776 65.8329L68.9904 65.788L69.0027 65.743L60.3218 63.368ZM65.1218 45.512L73.8268 47.7971L73.8268 47.7971L65.1218 45.512ZM68.5778 32.84L77.2252 35.3344L77.2314 35.3127L77.2376 35.2909L68.5778 32.84ZM70.6898 24.968L79.4385 27.0798L79.4465 27.0464L79.4543 27.0131L70.6898 24.968ZM72.0338 19.4L63.3266 17.1227L63.3143 17.1699L63.3025 17.2172L72.0338 19.4ZM84.1921 12.2758C84.4597 11.6279 84.2318 12.6292 82.7748 13.5195C81.9658 14.0139 80.9958 14.3304 79.981 14.3877C79.0142 14.4423 78.296 14.247 77.9241 14.1088L84.1914 -2.76483C81.006 -3.94801 77.0447 -4.07373 73.3887 -1.83954C70.2037 0.10682 68.5038 3.10807 67.5554 5.40415L84.1921 12.2758ZM89.251 9.39622C89.3624 9.15124 89.4537 8.96365 89.5246 8.82562C89.5596 8.75756 89.5873 8.70612 89.6076 8.66956C89.6176 8.6515 89.6253 8.63795 89.6307 8.6286C89.6361 8.61924 89.6389 8.61476 89.6388 8.6148C89.6388 8.61481 89.6356 8.62017 89.6291 8.63038C89.6225 8.64056 89.6121 8.65661 89.5977 8.67792C89.5699 8.71889 89.5208 8.78912 89.4495 8.88115C89.379 8.97213 89.2745 9.10035 89.1344 9.25223C88.9959 9.40256 88.8008 9.59961 88.5469 9.81731L76.8326 -3.84932C75.5323 -2.73474 74.698 -1.46029 74.2527 -0.726808C73.7308 0.132815 73.2699 1.05587 72.8645 1.94777L89.251 9.39622ZM88.0897 10.184C88.0307 10.2283 87.7977 10.3925 87.3859 10.547L81.0656 -6.30696C79.6298 -5.76851 78.3728 -5.02832 77.2898 -4.21601L88.0897 10.184ZM88.2507 10.1698C88.6293 9.98051 89.0493 9.78241 89.513 9.5763L82.2025 -6.87231C81.5142 -6.56642 80.8462 -6.25252 80.2008 -5.92984L88.2507 10.1698ZM89.513 9.5763C89.3195 9.66228 89.1864 9.70741 89.1399 9.72256C89.0898 9.7389 89.0874 9.73757 89.1446 9.72328C89.267 9.69267 89.5231 9.63717 89.9494 9.56987L87.1421 -8.20987C85.7387 -7.98828 83.8903 -7.62243 82.2025 -6.87231L89.513 9.5763ZM89.9494 9.56986C90.6217 9.46372 91.4879 9.392 92.5778 9.392V-8.608C90.7236 -8.608 88.9018 -8.48772 87.1421 -8.20987L89.9494 9.56986ZM92.9687 9.3835C93.9175 9.34225 94.8692 9.38312 95.8297 9.5084L98.1578 -8.34041C96.1743 -8.59913 94.182 -8.68626 92.1868 -8.59951L92.9687 9.3835ZM95.8774 9.51449C96.1621 9.55007 96.2997 9.5914 96.324 9.5993C96.3445 9.60596 96.2406 9.57449 96.0638 9.46398L105.604 -5.79999C103.204 -7.29963 100.591 -8.03637 98.1101 -8.34651L95.8774 9.51449ZM96.2619 9.58429C96.1027 9.49043 95.7046 9.22247 95.2833 8.69032C94.8403 8.13063 94.508 7.4487 94.3422 6.72707C94.028 5.35911 94.4835 4.71821 94.2019 5.37117L110.73 12.5008C111.856 9.88978 112.744 6.43288 111.885 2.69692C110.955 -1.35428 108.338 -4.19081 105.406 -5.9203L96.2619 9.58429ZM106.491 16.9859C106.341 17.0607 106.016 17.2182 105.582 17.3762C105.36 17.4567 104.154 17.912 102.532 17.912C101.678 17.912 99.9377 17.7929 98.0735 16.7276C95.891 15.4804 94.3902 13.4176 93.811 11.1008C93.3184 9.13038 93.6178 7.51382 93.8106 6.74279C94.0223 5.89565 94.3141 5.25864 94.4879 4.91117C94.8326 4.2216 95.1889 3.73846 95.3182 3.56606C95.4876 3.34014 95.6316 3.17173 95.7105 3.0815C95.8676 2.90201 95.9849 2.7849 96.0058 2.76407L108.734 15.4919C108.851 15.3751 109.044 15.178 109.257 14.9345C109.289 14.8981 110.012 14.1126 110.588 12.9608C110.765 12.6053 111.06 11.9613 111.273 11.1082C111.467 10.3312 111.767 8.70961 111.274 6.73514C110.693 4.4144 109.19 2.34861 107.004 1.0994C105.137 0.0320938 103.392 -0.0879872 102.532 -0.0880042C100.898 -0.0880367 99.674 0.37133 99.4306 0.459824C98.9741 0.625829 98.6226 0.795291 98.4409 0.886126L106.491 16.9859ZM94.4157 4.917L93.5517 6.549L109.46 14.971L110.324 13.339L94.4157 4.917ZM94.4016 5.23453L93.7296 6.09853L107.938 17.1495L108.61 16.2855L94.4016 5.23453ZM94.4698 5.26003C93.4196 6.31027 92.7498 7.53795 92.6739 7.66933C92.3944 8.15332 92.1061 8.70024 91.8264 9.25055C91.2584 10.3682 90.5421 11.8648 89.6947 13.69L106.021 21.27C106.837 19.5112 107.449 18.2398 107.873 17.4054C108.089 16.9798 108.213 16.7547 108.262 16.6707C108.287 16.6263 108.249 16.6964 108.158 16.8317C108.111 16.902 108.021 17.0328 107.893 17.1984C107.78 17.3454 107.544 17.642 107.198 17.988L94.4698 5.26003ZM89.8892 13.2965C88.5869 15.7771 87.2541 18.2256 85.8909 20.6421L101.569 29.4859C103.021 26.9104 104.441 24.3029 105.826 21.6635L89.8892 13.2965ZM85.8017 20.8042C83.5619 24.9728 81.9233 28.1359 81.211 29.8275L97.8005 36.8125C98.1122 36.0721 99.2896 33.7312 101.658 29.3238L85.8017 20.8042ZM93.7996 41.2297C96.6308 39.6927 99.6545 37.6115 102.829 35.1275L91.735 20.9525C89.021 23.0765 86.8607 24.5153 85.2119 25.4103L93.7996 41.2297ZM102.773 35.1706C105.521 33.0545 107.717 31.4067 109.384 30.2053C110.218 29.6046 110.885 29.1401 111.4 28.7964C111.656 28.6257 111.857 28.4969 112.008 28.4035C112.164 28.3063 112.231 28.2701 112.224 28.2736L103.651 12.4464C101.337 13.6999 97.1412 16.7887 91.7904 20.9094L102.773 35.1706ZM112.224 28.2736C112.925 27.8942 113.445 27.6266 113.808 27.4503C113.988 27.3631 114.098 27.3139 114.149 27.2919C114.214 27.2636 114.134 27.3013 113.952 27.3622L108.26 10.2858C106.819 10.766 105.091 11.6664 103.651 12.4464L112.224 28.2736ZM113.692 27.4444C113.056 27.6351 112.093 27.7617 110.977 27.5137L114.882 9.94231C112.614 9.43832 110.435 9.62889 108.52 10.2036L113.692 27.4444ZM111.936 27.6729C111.571 27.6324 111.386 27.5543 111.411 27.5643L118.096 10.8517C116.841 10.3497 115.441 9.95161 113.924 9.78305L111.936 27.6729ZM111.411 27.5643L113.811 28.5243L120.496 11.8117L118.096 10.8517L111.411 27.5643ZM114.308 28.7062C113.32 28.377 112.467 27.8251 111.81 27.168C111.185 26.5433 110.864 25.9524 110.717 25.6255C110.472 25.0796 110.615 25.0583 110.657 26.0957L128.643 25.3763C128.556 23.2137 128.219 20.6644 127.142 18.2625C125.978 15.6655 123.742 12.8771 120 11.6298L114.308 28.7062ZM110.652 25.9196C110.671 26.8584 110.575 27.3491 110.529 27.5158C110.492 27.6539 110.534 27.4133 110.838 27.0513L124.621 38.6287C127.925 34.6955 128.735 29.8099 128.648 25.5524L110.652 25.9196ZM110.603 27.3438C105.593 33.8399 100.376 37.6538 95.07 39.5156L101.03 56.5004C110.315 53.2422 118.218 46.9441 124.857 38.3361L110.603 27.3438ZM94.9161 39.5712C93.0117 40.2785 91.0441 40.8803 89.0106 41.375L93.2649 58.865C95.9674 58.2077 98.6078 57.4015 101.183 56.4448L94.9161 39.5712ZM90.1254 59.0629C90.1324 59.0637 90.3985 59.0827 90.9791 59.4851C91.6029 59.9174 92.5121 60.7444 93.6338 62.24L108.034 51.44C104.216 46.3498 99.0092 41.9536 92.1501 41.1771L90.1254 59.0629ZM93.6338 62.24C95.5888 64.8467 96.8651 67.3561 97.6111 69.7698L114.808 64.4542C113.378 59.8279 111.071 55.4893 108.034 51.44L93.6338 62.24ZM97.6562 69.9113C98.8159 73.455 99.7556 76.2134 100.458 78.1098L117.337 71.8582C116.76 70.2986 115.908 67.809 114.763 64.3127L97.6562 69.9113ZM100.498 78.2148C100.592 78.4606 100.655 78.6475 100.696 78.7804C100.737 78.9152 100.747 78.971 100.745 78.957C100.742 78.946 100.718 78.8235 100.705 78.6085C100.693 78.3965 100.688 78.0298 100.756 77.5512L118.575 80.0968C119.045 76.8109 118.051 73.711 117.298 71.7532L100.498 78.2148ZM100.686 78.2253C100.762 77.0743 101.178 75.747 102.088 74.569C102.946 73.4583 103.904 72.9193 104.426 72.6906L111.641 89.1814C113.188 88.5047 114.929 87.3897 116.331 85.575C117.786 83.693 118.505 81.5337 118.646 79.4227L100.686 78.2253ZM103.798 72.9948C104.098 72.8348 104.109 72.8774 103.571 73.0326C103.091 73.171 102.374 73.3426 101.369 73.5329L104.715 91.2191C107.161 90.7564 110.005 90.0846 112.269 88.8772L103.798 72.9948ZM101.478 73.5129C102.43 73.345 103.213 73.3866 103.722 73.4517C104.235 73.5174 104.609 73.6249 104.806 73.6895C105.173 73.8093 105.265 73.8911 105.011 73.7458C104.789 73.6192 104.422 73.3876 103.889 73.006C103.364 72.6302 102.734 72.1489 101.992 71.5469L90.6514 85.5251C92.505 87.029 94.3463 88.3832 96.0805 89.3742C96.9462 89.8689 98.0149 90.4067 99.2131 90.7985C100.295 91.1523 102.266 91.652 104.606 91.2391L101.478 73.5129ZM102.054 71.5973C100.612 70.4068 99.0719 69.1178 97.4312 67.7295L85.8043 81.4705C87.4916 82.8982 89.087 84.2332 90.5898 85.4747L102.054 71.5973ZM97.5809 67.859C95.7717 66.2586 93.9493 64.7508 92.1132 63.3384L81.1384 77.6056C82.6302 78.7532 84.1358 79.9974 85.6546 81.341L97.5809 67.859ZM92.1757 63.3869C90.0922 61.7548 88.1018 60.3377 86.2646 59.266C84.7082 58.3581 82.189 57.0391 79.3092 56.7991L77.8143 74.7369C77.37 74.6999 77.0442 74.6255 76.8657 74.5777C76.6825 74.5287 76.5821 74.4882 76.5763 74.4859C76.5676 74.4824 76.6168 74.5019 76.7294 74.5586C76.8405 74.6145 76.9946 74.6972 77.1949 74.814C78.0457 75.3103 79.3193 76.1812 81.0758 77.5571L92.1757 63.3869ZM78.5618 56.768C79.21 56.768 79.7044 56.8423 79.9213 56.8785C80.1756 56.9208 80.3638 56.9655 80.4566 56.9887C80.6364 57.0337 80.7152 57.063 80.6398 57.0378L74.9477 74.1142C75.2563 74.217 75.6551 74.3423 76.0909 74.4513C76.3459 74.515 77.3356 74.768 78.5618 74.768V56.768ZM69.4375 62.2335L67.7095 66.5535L84.422 73.2385L86.15 68.9185L69.4375 62.2335ZM67.7805 66.3811C66.8637 68.5421 65.9172 70.8269 64.9411 73.2347L81.6224 79.9973C82.5663 77.6691 83.4758 75.4739 84.351 73.4109L67.7805 66.3811ZM64.8937 73.354C64.2271 75.0682 63.4557 76.5184 62.6088 77.7464L77.4267 87.9656C79.1398 85.4816 80.5444 82.7718 81.6698 79.878L64.8937 73.354ZM64.9701 75.4047C64.9014 75.4513 64.7383 75.6045 63.9796 75.5305L62.2319 93.4455C66.7212 93.8835 71.1661 92.9487 75.0654 90.3073L64.9701 75.4047ZM64.0578 75.5385C63.5001 75.4792 63.6284 75.3951 64.0648 75.6626C64.2929 75.8024 64.5564 76.0099 64.8067 76.2928C65.0572 76.576 65.2334 76.8657 65.347 77.1158L48.9605 84.5642C51.6405 90.4603 57.078 92.8975 62.1537 93.4375L64.0578 75.5385ZM65.7191 78.077C66.0748 79.1796 65.9435 79.7777 65.979 79.1108C66.0034 78.652 66.0944 77.8416 66.3214 76.5897C66.7732 74.0978 67.6351 70.5475 68.9776 65.8329L51.6659 60.9031C50.2564 65.8525 49.2143 70.0462 48.6101 73.3783C48.3091 75.0384 48.0841 76.66 48.0045 78.1532C47.936 79.4383 47.9127 81.5084 48.5884 83.603L65.7191 78.077ZM69.0027 65.743C70.8644 58.9381 72.4729 52.955 73.8268 47.7971L56.4167 43.2269C55.0826 48.309 53.4911 54.2299 51.6408 60.993L69.0027 65.743ZM73.8268 47.7971C75.1609 42.7148 76.2927 38.5669 77.2252 35.3344L59.9303 30.3456C58.9428 33.7691 57.7706 38.0692 56.4167 43.2269L73.8268 47.7971ZM77.2376 35.2909C78.2077 31.8633 78.9492 29.1069 79.4385 27.0798L61.941 22.8562C61.5343 24.5411 60.8678 27.0327 59.9179 30.3891L77.2376 35.2909ZM79.4543 27.0131C79.8923 25.136 80.3292 23.3261 80.765 21.5828L63.3025 17.2172C62.8423 19.0579 62.3832 20.96 61.9252 22.9229L79.4543 27.0131ZM80.7409 21.6772C81.7145 17.9545 82.7903 15.083 83.8877 12.936L67.8598 4.744C66.0132 8.35704 64.529 12.5255 63.3266 17.1227L80.7409 21.6772Z" fill="black" mask="url(#path-1-outside-1_123_11)"/>
</svg>
