<svg width="177" height="186" viewBox="0 0 177 186" fill="none" xmlns="http://www.w3.org/2000/svg">
<path d="M63.5 49.5C63.5 59.8849 52.6537 68.5 39 68.5C25.3463 68.5 14.5 59.8849 14.5 49.5C14.5 39.1151 25.3463 30.5 39 30.5C52.6537 30.5 63.5 39.1151 63.5 49.5Z" fill="#D9D9D9" stroke="black"/>
<path d="M176.5 117.5C176.5 154.944 137.228 185.5 88.5 185.5C39.7722 185.5 0.5 154.944 0.5 117.5C0.5 80.0562 39.7722 49.5 88.5 49.5C137.228 49.5 176.5 80.0562 176.5 117.5Z" fill="#D9D9D9" stroke="black"/>
<path d="M166.5 30.5C166.5 46.9611 149.384 60.5 128 60.5C106.616 60.5 89.5 46.9611 89.5 30.5C89.5 14.0389 106.616 0.5 128 0.5C149.384 0.5 166.5 14.0389 166.5 30.5Z" fill="#D9D9D9" stroke="black"/>
<path d="M50.5 89.5C50.5 92.4877 48.9217 95.2268 46.3024 97.2349C43.6826 99.2434 40.0418 100.5 36 100.5C31.9582 100.5 28.3174 99.2434 25.6976 97.2349C23.0783 95.2268 21.5 92.4877 21.5 89.5C21.5 86.5123 23.0783 83.7732 25.6976 81.7651C28.3174 79.7566 31.9582 78.5 36 78.5C40.0418 78.5 43.6826 79.7566 46.3024 81.7651C48.9217 83.7732 50.5 86.5123 50.5 89.5Z" fill="black"/>
<path d="M50.5 89.5C50.5 92.4877 48.9217 95.2268 46.3024 97.2349C43.6826 99.2434 40.0418 100.5 36 100.5C31.9582 100.5 28.3174 99.2434 25.6976 97.2349C23.0783 95.2268 21.5 92.4877 21.5 89.5C21.5 86.5123 23.0783 83.7732 25.6976 81.7651C28.3174 79.7566 31.9582 78.5 36 78.5C40.0418 78.5 43.6826 79.7566 46.3024 81.7651C48.9217 83.7732 50.5 86.5123 50.5 89.5Z" fill="black"/>
<path d="M50.5 89.5C50.5 92.4877 48.9217 95.2268 46.3024 97.2349C43.6826 99.2434 40.0418 100.5 36 100.5C31.9582 100.5 28.3174 99.2434 25.6976 97.2349C23.0783 95.2268 21.5 92.4877 21.5 89.5C21.5 86.5123 23.0783 83.7732 25.6976 81.7651C28.3174 79.7566 31.9582 78.5 36 78.5C40.0418 78.5 43.6826 79.7566 46.3024 81.7651C48.9217 83.7732 50.5 86.5123 50.5 89.5Z" stroke="black"/>
<path d="M113.5 89.5C113.5 99.8849 102.654 108.5 89 108.5C75.3463 108.5 64.5 99.8849 64.5 89.5C64.5 79.1151 75.3463 70.5 89 70.5C102.654 70.5 113.5 79.1151 113.5 89.5Z" fill="black"/>
<path d="M113.5 89.5C113.5 99.8849 102.654 108.5 89 108.5C75.3463 108.5 64.5 99.8849 64.5 89.5C64.5 79.1151 75.3463 70.5 89 70.5C102.654 70.5 113.5 79.1151 113.5 89.5Z" fill="black"/>
<path d="M113.5 89.5C113.5 99.8849 102.654 108.5 89 108.5C75.3463 108.5 64.5 99.8849 64.5 89.5C64.5 79.1151 75.3463 70.5 89 70.5C102.654 70.5 113.5 79.1151 113.5 89.5Z" stroke="black"/>
<path d="M28.0973 135.438L14 101L35.4071 128.312L78.2213 140.5L132 128.312L78.2212 158L28.0973 135.438Z" fill="white" stroke="black"/>
</svg>
